<?xml version="1.0" encoding="UTF-8" standalone="no"?>
<!-- Generator: Adobe Illustrator 16.0.0, SVG Export Plug-In . SVG Version: 6.00 Build 0)  -->

<svg
   xmlns:dc="http://purl.org/dc/elements/1.1/"
   xmlns:cc="http://creativecommons.org/ns#"
   xmlns:rdf="http://www.w3.org/1999/02/22-rdf-syntax-ns#"
   xmlns:svg="http://www.w3.org/2000/svg"
   xmlns="http://www.w3.org/2000/svg"
   xmlns:sodipodi="http://sodipodi.sourceforge.net/DTD/sodipodi-0.dtd"
   xmlns:inkscape="http://www.inkscape.org/namespaces/inkscape"
   version="1.1"
   id="Capa_1"
   x="0px"
   y="0px"
   width="438.549px"
   height="438.549px"
   viewBox="0 0 438.549 438.549"
   style="enable-background:new 0 0 438.549 438.549;"
   xml:space="preserve"
   sodipodi:docname="oh-github-icon.svg"
   inkscape:version="0.92.3 (2405546, 2018-03-11)"><metadata
   id="metadata4897"><rdf:RDF><cc:Work
       rdf:about=""><dc:format>image/svg+xml</dc:format><dc:type
         rdf:resource="http://purl.org/dc/dcmitype/StillImage" /><dc:title></dc:title></cc:Work></rdf:RDF></metadata><defs
   id="defs4895">
	
</defs><sodipodi:namedview
   pagecolor="#ffffff"
   bordercolor="#666666"
   borderopacity="1"
   objecttolerance="10"
   gridtolerance="10"
   guidetolerance="10"
   inkscape:pageopacity="0"
   inkscape:pageshadow="2"
   inkscape:window-width="3066"
   inkscape:window-height="1689"
   id="namedview4893"
   showgrid="false"
   inkscape:zoom="1.6520388"
   inkscape:cx="87.543646"
   inkscape:cy="341.08046"
   inkscape:window-x="134"
   inkscape:window-y="55"
   inkscape:window-maximized="1"
   inkscape:current-layer="Capa_1" />

<g
   id="g4862">
</g>
<g
   id="g4864">
</g>
<g
   id="g4866">
</g>
<g
   id="g4868">
</g>
<g
   id="g4870">
</g>
<g
   id="g4872">
</g>
<g
   id="g4874">
</g>
<g
   id="g4876">
</g>
<g
   id="g4878">
</g>
<g
   id="g4880">
</g>
<g
   id="g4882">
</g>
<g
   id="g4884">
</g>
<g
   id="g4886">
</g>
<g
   id="g4888">
</g>
<g
   id="g4890">
</g>
<ellipse
   style="opacity:1;fill:#4ac1c8;fill-opacity:1;stroke:none;stroke-width:0.88357544;stroke-linecap:round;stroke-linejoin:miter;stroke-miterlimit:4;stroke-dasharray:none;stroke-dashoffset:0;stroke-opacity:1"
   id="path4935"
   cx="219.57462"
   cy="219.40244"
   rx="219.14659"
   ry="220.00264" /><path
   style="opacity:1;fill:#00ffcc;fill-opacity:1;stroke:none;stroke-width:1.11100233;stroke-linecap:round;stroke-linejoin:miter;stroke-miterlimit:4;stroke-dasharray:none;stroke-dashoffset:0;stroke-opacity:1"
   d="m 205.85028,8.058163 c -2.21429,0.139127 -4.41895,0.312997 -6.61132,0.521665 2.19298,-0.208747 4.39642,-0.382499 6.61132,-0.521665 z m 26.84276,0 c 2.1262,0.133555 4.24282,0.300939 6.34872,0.498599 -2.10644,-0.197725 -4.22196,-0.365012 -6.34872,-0.498599 z m -33.45586,0.521665 c -2.19236,0.208689 -4.37346,0.452815 -6.5439,0.731044 2.17046,-0.278252 4.35152,-0.522334 6.5439,-0.731044 z m -9.79278,1.174637 c -2.16003,0.31311 -4.31,0.660649 -6.44807,1.043334 2.1381,-0.38269 4.28801,-0.73022 6.44807,-1.043334 z m -6.44807,1.043334 c -2.13808,0.382684 -4.26454,0.800451 -6.38066,1.252709 2.11616,-0.452264 4.24253,-0.870019 6.38066,-1.252709 z m -9.54793,1.957136 c -3.15714,0.730438 -6.28934,1.540431 -9.39709,2.427347 3.1078,-0.886951 6.2399,-1.696875 9.39709,-2.427347 z m -12.49869,3.339375 c -2.06121,0.626184 -4.11076,1.288002 -6.14999,1.983753 2.03927,-0.695756 4.08875,-1.357564 6.14999,-1.983753 z m 137.87964,7.853387 c 1.9843,0.869711 3.95693,1.77372 5.91933,2.713021 -1.9617,-0.938959 -3.93575,-1.843603 -5.91933,-2.713021 z M 136.74367,25.27848 c -1.97328,0.904441 -3.93609,1.843707 -5.88738,2.817708 1.95131,-0.974003 3.91407,-1.913265 5.88738,-2.817708 z m 173.85866,4.304635 c 1.93979,1.008524 3.87008,2.051931 5.78802,3.129999 -1.91863,-1.078487 -3.84751,-2.121108 -5.78802,-3.129999 z m -185.56776,1.540158 c -1.9293,1.043559 -3.847,2.121572 -5.75431,3.234687 1.90731,-1.113115 3.825,-2.191126 5.75431,-3.234687 z m -5.75431,3.234687 c -1.90758,1.113173 -3.78993,2.251086 -5.64784,3.413899 1.85789,-1.162805 3.74026,-2.300726 5.64784,-3.413899 z m -5.64784,3.413899 c -1.85789,1.162814 -3.69056,2.350492 -5.49879,3.562947 1.80822,-1.212441 3.6409,-2.400141 5.49879,-3.562947 z M 319.26129,34.35796 c 1.90741,1.113229 3.79008,2.25105 5.64783,3.413899 -1.85775,-1.162856 -3.74042,-2.30067 -5.64783,-3.413899 z m 5.64783,3.413899 c 1.85777,1.162849 3.69068,2.350475 5.4988,3.562947 -1.80811,-1.212486 -3.64104,-2.40009 -5.4988,-3.562947 z m 5.4988,3.562947 c 1.80811,1.212472 3.59126,2.449896 5.34974,3.711994 -1.75847,-1.262119 -3.54164,-2.499508 -5.34974,-3.711994 z m -230.24478,5.622997 c -1.73372,1.28692 -3.442107,2.599 -5.126174,3.935565 1.684036,-1.336538 3.392474,-2.648668 5.126174,-3.935565 z m 260.10929,18.881133 c 1.51027,1.51032 2.99659,3.046311 4.45724,4.606279 -1.46097,-1.560244 -2.94662,-3.095704 -4.45724,-4.606279 z m 4.45724,4.606279 c 2.19067,2.339628 4.32645,4.734912 6.40549,7.186227 -2.07935,-2.451628 -4.21449,-4.846327 -6.40549,-7.186227 z M 71.638274,72.803357 c -1.10328,1.217758 -2.189099,2.454279 -3.263077,3.701352 1.074221,-1.247365 2.159539,-2.483313 3.263077,-3.701352 z m 299.496886,4.829859 c 2.07932,2.45166 4.10247,4.958183 6.07014,7.521572 -1.96742,-2.562993 -3.99109,-5.070277 -6.07014,-7.521572 z m 6.07014,7.521572 c 1.3115,1.708552 2.59914,3.442502 3.86104,5.200702 -1.26218,-1.75857 -2.54923,-3.4918 -3.86104,-5.200702 z M 65.344563,80.103139 c -1.361396,1.659292 -2.698314,3.342702 -4.01009,5.051649 1.311752,-1.708916 2.648723,-3.392378 4.01009,-5.051649 z M 318.63138,89.392 c -4.25961,0.007 -9.54086,1.20062 -15.84163,3.57714 -9.15929,3.45858 -17.12001,7.26281 -23.86002,11.41456 l -9.85489,6.22274 c -16.08555,-4.49426 -32.68913,-6.74263 -49.80672,-6.74263 -17.11759,0 -33.715,2.24837 -49.79964,6.74263 -2.76723,-1.89873 -6.44178,-4.24078 -11.02597,-7.00346 -4.58419,-2.7636 -11.80102,-6.09695 -21.65803,-9.98797 -9.85519,-3.8892 -17.29087,-5.0571 -22.30567,-3.49906 -7.60944,19.53959 -8.21453,37.17704 -1.81519,52.91011 -13.66082,14.69921 -20.492269,32.5067 -20.492269,53.43355 0,14.69739 1.772048,27.6652 5.316032,38.90674 3.542157,11.23699 8.083907,20.31773 13.616557,27.2349 5.53174,6.91353 12.49104,12.70959 20.88086,17.37646 8.38527,4.67322 16.51252,8.04247 24.37814,10.11926 7.87017,2.07406 16.73206,3.63449 26.58725,4.67016 -6.91443,6.224 -11.15185,15.12815 -12.70809,26.71855 -3.633,1.72793 -7.52462,3.02811 -11.67183,3.89298 -4.15176,0.86033 -9.07884,1.29174 -14.7841,1.29174 -5.70526,0 -11.36983,-1.8549 -16.98788,-5.5733 -5.62258,-3.71842 -10.41636,-9.12266 -14.3955,-16.21426 -3.28598,-5.53082 -7.47835,-10.02581 -12.57856,-13.48348 -5.102931,-3.4604 -9.380795,-5.53134 -12.83938,-6.22451 l -5.1865,-0.77363 c -3.633013,0 -6.136146,0.37828 -7.521579,1.15867 -1.385432,0.78039 -1.81672,1.77523 -1.297068,2.98805 0.518741,1.21191 1.295819,2.42119 2.333303,3.63037 1.038394,1.20919 2.161218,2.25184 3.371314,3.1158 l 1.815186,1.30062 c 3.803808,1.72884 7.564846,5.01178 11.283257,9.85489 3.718404,4.83856 6.440397,9.2525 8.169217,13.22619 l 2.59415,5.969 c 2.24849,6.56651 6.05102,11.88446 11.40923,15.94809 5.36095,4.06363 11.15328,6.65875 17.38002,7.77709 6.22399,1.12833 12.23522,1.73434 18.02588,1.81519 5.79338,0.0836 10.5917,-0.21168 14.3955,-0.90848 l 5.96546,-1.03092 c 0,6.5656 0.0423,14.25887 0.1313,23.07931 0.0863,8.82044 0.13131,13.48819 0.13131,14.00693 0,3.10881 -1.12283,5.7057 -3.37132,7.77886 -1.96506,1.81017 -4.85527,2.5024 -8.67138,2.06892 a 181.88427,198.79416 0 0 0 59.73083,11.26551 181.88427,198.79416 0 0 0 59.58531,-11.21405 c -2.17353,-0.19405 -3.91289,-0.89549 -5.19893,-2.12747 -2.164,-2.07407 -3.24533,-4.67005 -3.24533,-7.77887 v -54.7253 c 0,-16.77237 -4.49498,-29.04875 -13.48349,-36.82717 9.8552,-1.03748 18.71445,-2.5987 26.58371,-4.67548 7.86562,-2.07679 15.99637,-5.44791 24.38347,-10.11749 8.38527,-4.66596 15.39131,-10.41603 21.01571,-17.24872 5.61805,-6.83358 10.19769,-15.90522 13.74076,-27.23488 3.53854,-11.32785 5.31603,-24.3371 5.31603,-39.0345 0,-20.92231 -6.83413,-38.73433 -20.49405,-53.43356 6.40116,-15.73305 5.70772,-33.36959 -2.07068,-52.9101 -1.51376,-0.48689 -3.2379,-0.72893 -5.17409,-0.72572 z m 62.43496,0.96526 c 3.15543,4.39647 6.15604,8.94695 9.00142,13.65383 -2.84512,-4.70644 -5.84626,-9.25777 -9.00142,-13.65383 z m 9.00142,13.65383 c 0.56907,0.94137 1.13076,1.88875 1.68743,2.84254 1.11266,1.90752 2.19149,3.82663 3.23468,5.75608 -1.04319,-1.92945 -2.12026,-3.84856 -3.23291,-5.75608 -0.55668,-0.95379 -1.12013,-1.90118 -1.6892,-2.84254 z m 4.92211,8.59862 c 5.73754,10.61192 10.4246,21.55457 14.06016,32.8295 -3.63557,-11.2749 -8.32262,-22.21758 -14.06016,-32.8295 z M 53.761439,95.707 c -1.212549,1.80827 -2.400005,3.64087 -3.562948,5.4988 1.162935,-1.85792 2.350413,-3.69055 3.562948,-5.4988 z m -3.562948,5.4988 c -1.162942,1.85792 -2.300556,3.74026 -3.413899,5.64783 1.113343,-1.90757 2.250964,-3.78992 3.413899,-5.64783 z m -5.058745,8.51877 c -0.891445,1.58591 -1.752007,3.18103 -2.595912,4.78194 0.843725,-1.60059 1.704667,-3.19633 2.595912,-4.78194 z m -10.044741,20.54727 c -0.834594,1.99457 -1.633885,4.00042 -2.398957,6.01692 0.76505,-2.01654 1.564385,-4.02231 2.398957,-6.01692 z m -2.400731,6.01869 c -1.147977,3.02581 -2.216631,6.07528 -3.20807,9.15045 0.991214,-3.07451 2.060392,-6.12528 3.20807,-9.15045 z m 377.321016,12.23254 c 0.93939,3.09142 1.80048,6.20669 2.58349,9.34742 -0.78301,-3.14072 -1.6441,-6.25601 -2.58349,-9.34742 z m 2.58349,9.34742 c 0.522,2.09382 1.00959,4.19926 1.46208,6.315 -0.45249,-2.11573 -0.94008,-4.22119 -1.46208,-6.315 z m 1.46208,6.315 c 0.90487,4.2309 1.67095,8.50664 2.29781,12.82519 -0.62692,-4.31914 -1.39282,-8.59372 -2.29781,-12.82519 z M 28.520942,148.52485 c -0.626173,2.06108 -1.217775,4.13261 -1.774376,6.21564 0.556606,-2.08307 1.148198,-4.15452 1.774376,-6.21564 z m -1.774376,6.21564 c -0.5566,2.08301 -1.077973,4.17811 -1.564999,6.28306 0.487033,-2.105 1.008394,-4.2 1.564999,-6.28306 z m 389.612104,22.27197 c 0.94039,6.4787 1.568,13.05509 1.88263,19.73106 -0.3146,-6.67538 -0.94238,-13.25293 -1.88263,-19.73106 z m 1.88263,19.73106 c 0.15731,3.33797 0.23513,6.70002 0.23598,10.08732 0,2.71295 -0.0483,5.40882 -0.14727,8.08761 0.0989,-2.67879 0.14905,-5.37466 0.14906,-8.08761 -8.6e-4,-3.3873 -0.0805,-6.74935 -0.23777,-10.08732 z m 0.0887,18.17493 c -0.0957,2.59097 -0.2393,5.1666 -0.42762,7.72562 0.18839,-2.55959 0.33187,-5.13405 0.42762,-7.72562 z M 21.737503,180.26488 c -0.27821,2.17018 -0.52237,4.3518 -0.731042,6.54389 0.208732,-2.1927 0.452734,-4.37309 0.731042,-6.54389 z m -0.731042,6.54389 c -0.208728,2.1927 -0.382514,4.39672 -0.521667,6.61134 0.139155,-2.21464 0.312935,-4.41861 0.521667,-6.61134 z m -0.704428,9.94183 c -0.156491,3.3378 -0.234217,6.70199 -0.234217,10.08911 0,-3.38773 0.07767,-6.75071 0.234217,-10.08911 z m -0.196956,14.14533 c 0.04947,2.69587 0.147909,5.37446 0.296322,8.03615 -0.148404,-2.66168 -0.246854,-5.34029 -0.296322,-8.03615 z m 0.296322,8.03615 c 0.37103,6.65423 1.051077,13.20162 2.040532,19.64234 -0.98941,-6.44064 -1.669522,-12.98815 -2.040532,-19.64234 z m 2.040532,19.64234 c 0.395782,2.57628 0.84137,5.13558 1.336105,7.67772 -0.494714,-2.54209 -0.940341,-5.10147 -1.336105,-7.67772 z M 417.85802,223.21187 c -0.38123,4.994 -0.94053,9.92624 -1.67501,14.7983 0.73459,-4.87212 1.2937,-9.80425 1.67501,-14.7983 z m -1.84357,15.89664 c -0.34313,2.19253 -0.72244,4.3726 -1.13737,6.54035 0.41497,-2.16774 0.79419,-4.34784 1.13737,-6.54035 z m -1.40707,7.91548 c -0.95818,4.81716 -2.08881,9.57356 -3.40327,14.26776 1.31436,-4.69365 2.44511,-9.4512 3.40327,-14.26776 z m -3.40327,14.26776 c -0.69271,2.47385 -1.43517,4.93106 -2.22684,7.37076 0.79169,-2.43971 1.5341,-4.8969 2.22684,-7.37076 z m -17.81118,42.68616 c -2.57259,4.53819 -5.34293,9.00897 -8.31117,13.41074 2.96825,-4.40177 5.73854,-8.87254 8.31117,-13.41074 z m -345.504675,4.67016 c 1.098747,1.82137 2.223414,3.6342 3.387282,5.43314 -1.164112,-1.79933 -2.288316,-3.61138 -3.387282,-5.43314 z M 362.7956,345.15941 c -0.8927,0.93747 -1.79347,1.86559 -2.7006,2.78221 0.90743,-0.9169 1.80761,-1.84444 2.7006,-2.78221 z m -11.05968,10.74916 c -1.90094,1.70809 -3.82931,3.37553 -5.78803,5.00019 1.95871,-1.62464 3.8871,-3.29212 5.78803,-5.00019 z m -264.924959,0.007 c 1.900912,1.70806 3.831126,3.37556 5.789788,5.00019 -1.958702,-1.62467 -3.88884,-3.2921 -5.789788,-5.00019 z m 21.021029,16.40234 c 1.69622,1.14214 3.41722,2.2497 5.15101,3.33758 -1.73413,-1.08805 -3.45445,-2.19523 -5.15101,-3.33758 z m 215.26017,4.85646 c -1.76315,1.06914 -3.5414,2.1176 -5.34264,3.13177 1.8016,-1.01436 3.57914,-2.0624 5.34264,-3.13177 z m -12.08526,6.75505 c -2.27647,1.16574 -4.58228,2.28898 -6.91652,3.37131 2.33424,-1.08232 4.64005,-2.20557 6.91652,-3.37131 z m -28.70409,11.9859 c -0.5262,0.0978 -1.03166,0.1704 -1.52596,0.23067 0.49326,-0.0589 0.99955,-0.13287 1.52596,-0.23067 z m -1.52596,0.23067 c -0.22873,0.0273 -0.44895,0.043 -0.6707,0.0622 0.22266,-0.0199 0.44115,-0.0341 0.6707,-0.0622 z m -0.6707,0.0622 c -0.22431,0.02 -0.44631,0.0396 -0.66363,0.0514 0.21636,-0.0111 0.44028,-0.0322 0.66363,-0.0514 z m -0.66363,0.0514 c -0.306,0.0157 -0.60556,0.0235 -0.89784,0.0231 0.293,-4.3e-4 0.59094,-0.006 0.89784,-0.0231 z m -0.89784,0.0231 c -0.10486,1.6e-4 -0.20743,-0.003 -0.3105,-0.005 0.1029,0.002 0.20581,0.005 0.3105,0.005 z m -0.3105,-0.005 c -0.32971,-0.007 -0.65489,-0.0185 -0.96704,-0.0461 0.31184,0.0277 0.63692,0.04 0.96704,0.0461 z m -121.99367,-0.3531 c 0.58567,0.10868 1.15235,0.19328 1.69986,0.25551 -0.54751,-0.0623 -1.1142,-0.1468 -1.69986,-0.25551 z"
   id="path4899"
   inkscape:connector-curvature="0" /><path
   style="opacity:1;fill:#ffffff;fill-opacity:1;stroke:none;stroke-width:0.96386725;stroke-linecap:round;stroke-linejoin:miter;stroke-miterlimit:4;stroke-dasharray:none;stroke-dashoffset:0;stroke-opacity:1"
   d="m 122.0957,72.513672 c -14.42609,0.390268 -23.615579,15.135356 -24.697262,28.292968 -2.945194,12.61916 -3.166937,25.87885 -0.548829,38.57422 -21.514315,30.18882 -21.568784,70.93122 -9.601562,104.84961 1.870397,5.5845 5.426671,11.73393 7.626953,16.30859 -13.11147,-2.48372 -29.750039,3.29279 -33.283203,17.40821 -3.09553,12.61898 6.096813,24.41506 16.59375,30.27148 10.618287,7.48717 11.987873,21.22489 19.697265,31.01953 10.112498,16.04616 29.575838,22.49347 47.616238,23.73243 2.7021,0.6487 6.9115,-0.40552 8.78415,0.93554 0.20372,2.34236 1.24673,5.79 -2.36132,5.39648 -9.65083,2.30688 -18.75654,9.06851 -21.59766,18.89649 26.29763,24.00674 63.73007,29.92691 98.11429,28.712 23.73956,-1.84299 49.26912,-5.126 68.5986,-20.22372 6.54922,-9.31494 0.88762,-23.24266 -9.11523,-27.50195 -0.11023,-21.67401 2.54271,-43.72137 -2.41993,-65.07813 31.59012,-7.57582 60.81661,-30.40977 70.11719,-62.36133 11.67844,-33.33418 10.39356,-72.91577 -10.1875,-102.57617 4.26538,-19.97949 0.75307,-41.33708 -8.29492,-59.488279 -4.29095,-6.014441 -12.8639,-6.289074 -19.63281,-6.873047 -18.4246,-0.175774 -35.03379,9.194754 -50.60547,17.908203 -5.59614,1.811722 -10.89299,-2.242167 -16.62058,-2.115658 -24.45906,-3.578593 -49.59538,-2.650152 -73.68411,2.937923 -16.4791,-10.122624 -34.85954,-18.450997 -54.49805,-19.02539 z"
   id="rect4962-5"
   inkscape:connector-curvature="0" /><path
   style="opacity:1;fill:#ff9161;fill-opacity:1;stroke:none;stroke-width:0.96386725;stroke-linecap:round;stroke-linejoin:miter;stroke-miterlimit:4;stroke-dasharray:none;stroke-dashoffset:0;stroke-opacity:1"
   d="m 315.96997,90.04186 c -14.12463,1.376536 -27.11994,8.2424 -39.23652,15.22283 -4.13878,2.61668 -8.05266,6.44284 -13.03309,3.71032 -29.51062,-7.10302 -60.83368,-6.69926 -90.12086,1.30631 -13.62411,-9.16592 -28.79282,-16.743908 -44.97115,-19.951882 -4.09035,-0.305673 -10.59745,-1.236467 -11.09712,4.334342 -5.68222,15.40681 -7.28175,32.95585 -1.16911,48.49163 -15.59456,16.49707 -21.315139,40.07491 -19.092904,62.26904 1.587334,25.55761 10.646234,53.29447 33.050774,67.96798 15.31837,10.41648 33.49403,15.67371 51.76587,17.66629 -5.92837,6.2984 -8.28499,15.19347 -10.19679,23.09645 -13.11266,5.26146 -30.07971,7.17074 -41.46383,-2.91337 -9.29154,-7.45003 -12.51553,-20.3195 -23.12464,-26.48911 -7.59945,-5.39993 -18.35447,-9.731 -27.284172,-5.2497 -4.221438,3.34468 0.542885,8.56228 3.356954,11.06516 5.846679,3.7962 11.756034,7.77629 15.438978,13.9353 7.84561,9.86055 8.79029,24.25901 19.87858,31.70498 13.05703,10.0649 30.69258,10.1232 46.39212,9.1461 3.9392,-0.76707 7.89667,-1.89186 6.50715,3.54304 -0.45078,10.6745 1.14096,21.60643 -0.40223,32.13728 -2.16769,5.90136 -9.27528,3.683 -13.88832,5.14446 9.9612,6.28124 22.07419,8.4186 33.49248,10.88284 28.87025,5.82161 59.09428,2.14182 86.6079,-7.8661 6.2059,-1.74851 7.48238,-3.57112 0.17292,-3.84753 -7.32677,-0.0385 -7.36644,-9.19617 -6.78721,-14.41836 -0.5721,-19.14653 1.14521,-38.42241 -0.8383,-57.49676 -1.2337,-8.13193 -4.2335,-16.22957 -9.83779,-22.38031 25.66763,-2.81233 52.60917,-12.43192 68.60327,-33.7481 14.81934,-21.82101 18.64444,-49.62901 15.73972,-75.40928 -2.10391,-14.37891 -8.64171,-28.02478 -18.45008,-38.73842 6.62368,-16.79907 4.02879,-35.77761 -2.77053,-52.085413 -2.32563,-0.80401 -4.78626,-1.133245 -7.24207,-1.030017 z"
   id="rect4962"
   inkscape:connector-curvature="0" /></svg>